<?xml version="1.0" encoding="utf-8"?>
<!-- Generator: Adobe Illustrator 23.0.2, SVG Export Plug-In . SVG Version: 6.00 Build 0)  -->
<svg version="1.1" id="Calque_1" xmlns="http://www.w3.org/2000/svg" xmlns:xlink="http://www.w3.org/1999/xlink" x="0px" y="0px"
	 viewBox="0 0 107.7 107.7" style="enable-background:new 0 0 107.7 107.7;" xml:space="preserve">
<style type="text/css">
	.st0{fill:#535154;}
</style>
<g>
	<path class="st0" d="M52.8,4l-5.7,5.7l-2.7-2.7c-9.4-9.4-24.8-9.4-34.2,0c-0.5,0.5-1,1.1-1.5,1.6c-0.6,0.5-1.1,1-1.7,1.5
		c-9.4,9.4-9.4,24.8,0,34.2l2.7,2.7L4,52.8l18.8,18.8l14.3-14.3l0.6-0.6h0.8h8.1c0.4-19.3-11.4-28.2-15.8-30.8L14.3,42.5l-2.7-2.7
		c-8.1-8.1-8.6-21-1.5-29.7c4.1-3.3,9.1-5,14-5c5.7,0,11.4,2.2,15.7,6.5l2.7,2.7L32.3,24.5c5,3.2,16.7,12.9,16.4,32.3h5.8h2v2v15.9
		v0.8L55.9,76L41.6,90.3L59,107.7L107.7,59L52.8,4z M10.2,41.3l2.7,2.7l-1.7,1.7L8.5,43c-6.6-6.6-8.2-16.4-4.6-24.5
		C1.9,26.4,4,35.1,10.2,41.3z M43.9,12.9l-2.7-2.7C35.1,4,26.4,1.9,18.5,3.8C21.3,2.6,24.3,2,27.3,2C33,2,38.7,4.2,43,8.5l2.7,2.7
		L43.9,12.9z"/>
	<path class="st0" d="M48.6,58.7c-0.1,2.1-0.4,4.3-0.8,6.6c0.6,0.5,0.9,1.3,0.9,2.1c0,1.6-1.3,2.9-2.9,2.9s-2.9-1.3-2.9-2.9
		c0-1.6,1.3-2.9,2.9-2.9c0,0,0.1,0,0.1,0c0.4-2,0.6-3.9,0.7-5.8h-8L24.3,73l-14,14l15.9,15.9l28.3-28.3V58.7H48.6z"/>
</g>
</svg>
