<svg id="Layer_2" xmlns="http://www.w3.org/2000/svg" viewBox="0 0 113.427 113.435"><style>.st0{fill:#535154}.st1{fill:none}</style><path class="st0" d="M70.143 78.128l33.653 33.654a5.643 5.643 0 0 0 7.979-7.979L78.12 70.149l-7.977 7.979zm39.647 27.66a2.838 2.838 0 0 1 0 4.01 2.838 2.838 0 0 1-4.01 0l-2.004-2.005 4.009-4.01 2.005 2.005z"/><path class="st1" d="M9.595 7.583l53.949 53.949C37.005 14.239 16.82 8.097 9.595 7.583z"/><path class="st1" d="M67.764 63.311C50.321 18.082 34.137 5.646 23.48 3.302c-5.375-1.181-9.673.124-12.482 1.554 9.195 1.163 30.179 9.782 56.766 58.455zM4.851 10.956c-1.441 2.807-2.75 7.129-1.535 12.584C5.689 34.184 18.148 50.347 63.31 67.763 14.566 41.138 5.993 20.131 4.851 10.956z"/><path class="st1" d="M61.528 63.539L7.626 9.638c.617 7.289 6.984 27.549 53.902 53.901z"/><path class="st0" d="M76.021 69.422l-4.676-4.676C56.678 25.811 40.786 4.204 24.088.534 12.776-1.952 5.635 5.03 5.336 5.329l-.003.004-.004.003c-.299.298-7.281 7.44-4.795 18.752 3.67 16.695 25.267 32.583 64.188 47.247l4.692 4.692 6.607-6.605zM23.48 3.302c10.657 2.344 26.842 14.78 44.284 60.008C41.177 14.638 20.193 6.019 10.997 4.856c2.81-1.43 7.108-2.735 12.483-1.554zm40.064 58.23L9.595 7.583c7.225.514 27.41 6.656 53.949 53.949zm-2.016 2.007C14.61 37.187 8.243 16.927 7.626 9.638l53.902 53.901zM3.315 23.54c-1.215-5.454.094-9.777 1.535-12.584 1.143 9.175 9.716 30.182 58.459 56.807C18.148 50.347 5.689 34.184 3.315 23.54zm98.198-16.358a6.361 6.361 0 0 0-1.866 4.443h-.001c0 2.12-1.266 4.555-4.648 7.939-3.384 3.383-7.169 2.608-7.169 2.608l3.859 3.859 3.859 3.859s-.775-3.785 2.608-7.168c3.384-3.383 5.818-4.648 7.938-4.648v-.001a6.356 6.356 0 0 0 4.443-1.865c2.492-2.492 3.199-7.24.707-9.732-2.49-2.493-7.238-1.786-9.73.706zM6.707 101.987a6.354 6.354 0 0 1 4.442-1.865v-.002c2.12 0 4.556-1.265 7.939-4.648 3.384-3.384 2.608-7.168 2.608-7.168l3.859 3.859 3.859 3.859s-3.785-.776-7.168 2.607c-3.384 3.384-4.648 5.818-4.648 7.938h-.002a6.356 6.356 0 0 1-1.865 4.443c-2.492 2.492-7.24 3.199-9.732.708-2.491-2.49-1.784-7.238.708-9.731zm54.082-29.122c-8.159-3.159-15.571-6.392-22.189-9.683L21.018 80.765l.004.004a2.9 2.9 0 0 0 .035 4.066l11.827 11.827a2.9 2.9 0 0 0 4.066.034l.004.005 23.835-23.836zm19.462-51.334L63.183 38.6c3.29 6.619 6.522 14.029 9.683 22.189l23.321-23.321a2.907 2.907 0 0 0 0-4.109L84.359 21.531a2.906 2.906 0 0 0-4.108 0z"/></svg>