<svg id="Layer_2" xmlns="http://www.w3.org/2000/svg" viewBox="0 0 139.834 124.446"><style>.st1{fill:none}.st2{fill:#535154}</style><path class="st1" d="M92.739 27.85a97.828 97.828 0 0 1-1.581-3.122c-.572 4.254-1.571 7.025-1.668 7.287-.035.095-.097.17-.144.257.205.108.394.207.557.29.911.464 1.303.741 1.762 1.609-.169-3.097.555-5.226 1.074-6.321z"/><path class="st1" d="M91.159 24.728c-.572 4.254-1.571 7.025-1.668 7.287-.035.095-.097.17-.144.257.205.108.394.207.557.29.911.464 1.303.741 1.762 1.609-.17-3.096.554-5.225 1.073-6.32a96.854 96.854 0 0 1-1.58-3.123z"/><path class="st2" d="M59.025 78.921a513.216 513.216 0 0 1-12.915-9.4c-.706 8.693 3.106 17.653 5.643 20.31 3.201 3.353 4.355 4.736 6.851 11.135 2.494 6.398 7.803 3.085 10.621.937 2.818-2.148 8.049-1.743 16.376-5.333.14-.06.272-.132.411-.194l-10.192-6.32c-5.198-3.214-10.691-6.855-16.795-11.135z"/><path class="st2" d="M121.176 112.056c-2.101-3.081-4.593-5.491-7.153-7.755-2.563-2.256-5.206-4.339-7.875-6.362a233.04 233.04 0 0 0-8.093-5.865c-5.438-3.807-10.929-7.464-16.372-11.145a371.608 371.608 0 0 1-15.96-11.325C55.261 61.775 45.032 53.563 34.795 45.35L19.452 32.988c-2.569-2.05-5.035-4.222-7.7-6.162-2.686-1.917-5.525-3.654-8.829-4.865a2.173 2.173 0 0 0-2.656 3.082c1.689 3.093 3.854 5.646 6.187 8.004 2.354 2.335 4.92 4.42 7.399 6.61 5.018 4.309 9.996 8.672 15.149 12.829 10.242 8.395 20.771 16.463 31.654 24.116 5.433 3.81 11.02 7.56 16.655 11.043l16.79 10.409c5.533 3.49 11.11 6.918 16.176 10.791 2.494 1.945 4.968 3.962 6.801 6.189.901 1.103 1.602 2.285 1.809 3.273.204.962.041 1.767-.766 2.735l-.056.066a2.035 2.035 0 0 0 2.949 2.794c.762-.704 1.482-1.606 1.944-2.718a7.062 7.062 0 0 0 .496-3.504c-.269-2.297-1.265-4.071-2.278-5.624zm18.587-54.758a1.416 1.416 0 0 0-1.283-.977c-6.587-1.108-11.187-7.416-19.489-18.801l-2.265-3.101c-8.272-11.284-17.644-9.741-21.288-8.554-.167.055-.305.106-.449.159a100.052 100.052 0 0 1-3.434-7.316c-.018-5.148-.958-11.295-4.028-17.521a2.125 2.125 0 1 0-3.813 1.881c1.84 3.731 2.808 7.461 3.247 10.919-.103.174-.18.365-.2.578-.272 2.903-1.277 5.044-2.964 6.432l-.043-.068c-4.164 2.658-8.069 2.155-12.163.491-.486-.264-1.054-.585-1.705-.953-3.469-1.966-9.077-5.134-14.623-6.594a19.51 19.51 0 0 0-3.327-.65 17.231 17.231 0 0 0-2.296-.122c-9.361-.001-17.689 5.799-18.111 6.098l.009.012a1.408 1.408 0 0 0-.524 1.621 1.418 1.418 0 0 0 1.544.924c3.324-.495 5.807 1.715 8.949 4.512 4.255 3.788 9.55 8.501 19.244 8.492 4.874-.005 9.356-.662 13.325-1.954 6.249-2.035 10.439-5.371 12.884-9.016-.41 3.335-1.112 5.695-1.364 6.47-1.731-.79-3.163.212-4.838 1.764-1.757 1.627-3.931 2.511-13.097 5.145-6.893 1.98-12.211 9.714-16.3 17.777 5.316 4.198 10.682 8.366 16.062 12.391A364.497 364.497 0 0 0 83.27 78.582c1.271.86 2.545 1.72 3.82 2.579 3.225 2.172 6.527 4.412 9.81 6.676 2.462-2.859 4.406-5.836 5.844-8.28 4.132-7.021 4.067-16.257 3.092-22.62 13.301 8.211 32.068 2.452 32.987 2.16l.012-.003.019-.007a1.42 1.42 0 0 0 .909-1.789zM91.666 34.17c-.459-.868-.851-1.145-1.762-1.609a40.431 40.431 0 0 1-.557-.29c.047-.087.109-.162.144-.257.097-.262 1.096-3.033 1.668-7.287a95.78 95.78 0 0 0 1.581 3.122c-.52 1.096-1.244 3.225-1.074 6.321z"/></svg>